<svg width="88" height="41" viewBox="0 0 88 41" fill="none" xmlns="http://www.w3.org/2000/svg">
<path d="M86.2325 35.3348C85.6865 35.1088 85.404 34.8358 85.3852 34.5157C85.3663 34.1956 85.3569 34.0167 85.3569 33.979C85.3569 33.4329 85.5923 33.0093 86.0631 32.708C86.2137 32.6327 86.3455 32.595 86.4585 32.595C86.5903 32.595 86.675 32.595 86.7127 32.595C86.8633 32.595 86.9952 32.6232 87.1081 32.6797C87.2211 32.7362 87.3247 32.821 87.4188 32.9339C87.5318 33.0281 87.6166 33.1317 87.673 33.2446C87.7484 33.3765 87.786 33.5177 87.786 33.6683C87.786 33.819 87.786 33.9225 87.786 33.979C87.786 34.1485 87.7672 34.3085 87.7295 34.4592C87.5977 34.7981 87.4188 35.0335 87.1929 35.1653C86.9669 35.2971 86.7504 35.363 86.5432 35.363C86.4491 35.363 86.3455 35.3536 86.2325 35.3348Z" fill="url(#paint0_linear_1320_69)"/>
<path d="M68.4665 34.1485C67.7321 33.8849 67.2425 33.3011 66.9977 32.3973C66.9224 32.096 66.8848 31.7006 66.8848 31.211C66.8848 30.7402 66.913 30.3071 66.9695 29.9117C67.2708 28.3488 67.8074 26.8989 68.5795 25.5619C69.3703 24.2062 70.2459 23.227 71.2063 22.6244C71.7524 22.3232 72.2796 22.1725 72.788 22.1725C73.127 22.1725 73.4565 22.2384 73.7766 22.3702C74.5863 22.7092 75.1512 23.3682 75.4713 24.3474C75.4901 24.4792 75.509 24.6016 75.5278 24.7146C75.5466 24.8087 75.5561 24.8652 75.5561 24.8841C75.5561 24.9217 75.5749 24.9782 75.6125 25.0535C75.6502 25.11 75.6879 25.1665 75.7255 25.223C75.8008 25.3172 75.8573 25.4207 75.895 25.5337C75.9327 25.6467 75.9609 25.8067 75.9797 26.0139C75.9986 26.221 76.0174 26.5223 76.0362 26.9177C76.1304 29.6104 76.6953 31.2487 77.7309 31.8324C77.9004 31.9077 78.0699 31.9454 78.2393 31.9454C78.503 31.9454 78.7948 31.87 79.115 31.7194C79.548 31.4746 80.0565 31.0039 80.6402 30.3071C81.2428 29.5916 81.7888 28.7819 82.2784 27.8781C82.3914 27.6709 82.4855 27.492 82.5609 27.3414C82.655 27.1908 82.7115 27.0966 82.7303 27.0589C82.8057 26.946 82.9092 26.8895 83.041 26.8895H83.0975C83.2482 26.9083 83.3423 26.993 83.38 27.1437V27.3131C83.38 27.5203 83.3329 27.8121 83.2388 28.1888C83.1069 28.6783 82.9186 29.215 82.6739 29.7987C81.4876 32.5668 79.9811 33.9508 78.1546 33.9508C77.5709 33.9508 77.0625 33.8378 76.6294 33.6118C75.3113 32.9339 74.3698 31.6253 73.8048 29.6857C73.7484 29.4974 73.7013 29.3374 73.6636 29.2056C73.626 29.1114 73.6071 29.0549 73.6071 29.0361C73.5883 29.0361 73.5412 29.102 73.4659 29.2338C73.3718 29.4033 73.2588 29.6104 73.127 29.8552C71.6959 32.7739 70.3778 34.2332 69.1726 34.2332H69.0314C68.9373 34.2332 68.8337 34.2238 68.7207 34.205C68.6266 34.1862 68.5418 34.1673 68.4665 34.1485ZM69.4268 32.2843C69.6905 32.1148 69.9917 31.8136 70.3307 31.3805C70.6696 30.9474 71.1121 30.2789 71.6582 29.3751C71.8653 29.0549 72.0819 28.716 72.3079 28.3582C72.5338 27.9816 72.7127 27.6803 72.8445 27.4544C73.127 27.0213 73.287 26.7388 73.3247 26.607C73.3812 26.4564 73.4094 26.3434 73.4094 26.2681C73.4094 26.1363 73.3812 26.0139 73.3247 25.9009C73.1364 25.5431 72.9481 25.3642 72.7598 25.3642C72.4208 25.3642 71.9783 25.5714 71.4322 25.9856C70.905 26.3999 70.4437 26.8989 70.0482 27.4826C69.5398 28.2547 69.182 28.989 68.9749 29.6857C68.7866 30.3825 68.6925 30.938 68.6925 31.3522C68.6925 31.597 68.7207 31.8136 68.7772 32.0019C68.8525 32.2278 68.909 32.3502 68.9467 32.369C69.0032 32.3879 69.0502 32.3973 69.0879 32.3973C69.182 32.3973 69.295 32.3596 69.4268 32.2843Z" fill="url(#paint1_linear_1320_69)"/>
<path d="M48.3844 34.6851C48.2337 34.6098 48.1019 34.4874 47.9889 34.318C47.8571 34.1485 47.763 33.9696 47.7065 33.7813C47.6876 33.7248 47.6782 33.5083 47.6782 33.1317C47.6782 32.7739 47.6971 32.1902 47.7347 31.3805C47.7535 30.5519 47.763 29.8364 47.763 29.2338C47.763 28.6501 47.7535 28.0004 47.7347 27.2849C47.7159 26.6258 47.7065 26.1174 47.7065 25.7597C47.7065 25.4019 47.7253 25.1288 47.763 24.9405C47.7818 24.7522 47.8289 24.5922 47.9042 24.4604C47.9983 24.2532 48.149 24.0838 48.3561 23.952C48.5632 23.8013 48.7704 23.726 48.9775 23.726C49.2223 23.726 49.4483 23.8107 49.6554 23.9802C49.8814 24.1308 50.0414 24.338 50.1356 24.6016C50.192 24.6769 50.2203 24.7617 50.2203 24.8558C50.2391 24.95 50.2485 25.0818 50.2485 25.2512C50.2674 25.4019 50.2768 25.6467 50.2768 25.9856C50.258 26.3057 50.2391 26.6635 50.2203 27.0589C50.2203 27.4355 50.2015 27.7557 50.1638 28.0193C50.145 28.2829 50.1356 28.5089 50.1356 28.6972L50.1073 28.9796L50.2203 28.8101C50.2768 28.716 50.3521 28.5842 50.4463 28.4147C51.8397 25.9856 53.1766 24.5169 54.4571 24.0085C54.7584 23.9143 55.0408 23.8672 55.3044 23.8672C56.1141 23.8672 56.7638 24.3191 57.2534 25.223C57.4228 25.5431 57.5641 25.9291 57.677 26.3811C57.8088 26.8141 57.9595 27.4732 58.129 28.3582C58.3173 29.4315 58.5338 30.2412 58.7786 30.7873C59.0234 31.3146 59.3435 31.6723 59.7389 31.8606C59.8519 31.9359 59.9555 31.983 60.0496 32.0019C60.1626 32.0207 60.3227 32.0395 60.5298 32.0583H60.6145C61.0665 32.0583 61.556 31.9359 62.0833 31.6912C62.6482 31.4087 63.3637 30.9285 64.2299 30.2506C64.8325 29.7799 65.3597 29.3562 65.8117 28.9796C66.2636 28.5842 66.7155 28.1699 67.1674 27.7368C67.4122 27.492 67.6288 27.2849 67.8171 27.1154C68.0054 26.946 68.1184 26.8518 68.156 26.833H68.2408C68.2972 26.833 68.3537 26.8424 68.4102 26.8612C68.4855 26.8989 68.542 26.9648 68.5797 27.0589V27.1154C68.5797 27.605 67.7418 28.8007 66.0659 30.7026C65.5575 31.2675 65.002 31.7947 64.3994 32.2843C63.8157 32.7739 63.2884 33.1411 62.8177 33.3859C61.9703 33.8378 61.17 34.0638 60.4168 34.0638C59.5695 34.0638 58.788 33.7907 58.0725 33.2446C57.5829 32.8869 57.1686 32.3973 56.8297 31.7759C56.4907 31.1357 56.1706 30.2412 55.8693 29.0926C55.5681 27.9816 55.3421 27.2002 55.1915 26.7482C55.0408 26.2963 54.9278 26.0704 54.8525 26.0704C54.7207 26.0704 54.4759 26.2398 54.1181 26.5788C53.7604 26.8989 53.4308 27.2661 53.1296 27.6803C52.188 28.9231 51.3689 30.599 50.6722 32.708C50.4839 33.2541 50.3333 33.6401 50.2203 33.866C50.1261 34.092 50.0226 34.2615 49.9096 34.3745C49.7213 34.5816 49.533 34.704 49.3447 34.7416C49.1564 34.7793 49.0152 34.7981 48.921 34.7981C48.7327 34.7981 48.5538 34.7605 48.3844 34.6851Z" fill="url(#paint2_linear_1320_69)"/>
<path d="M34.4592 34.1485C33.7248 33.8849 33.2352 33.3011 32.9904 32.3973C32.9151 32.096 32.8774 31.7006 32.8774 31.211C32.8774 30.7402 32.9057 30.3071 32.9622 29.9117C33.2635 28.3488 33.8001 26.8989 34.5722 25.5619C35.363 24.2062 36.2386 23.227 37.199 22.6244C37.745 22.3232 38.2723 22.1725 38.7807 22.1725C39.1196 22.1725 39.4492 22.2384 39.7693 22.3702C40.579 22.7092 41.1439 23.3682 41.464 24.3474C41.4828 24.4792 41.5017 24.6016 41.5205 24.7146C41.5393 24.8087 41.5487 24.8652 41.5487 24.8841C41.5487 24.9217 41.5676 24.9782 41.6052 25.0535C41.6429 25.11 41.6805 25.1665 41.7182 25.223C41.7935 25.3172 41.85 25.4207 41.8877 25.5337C41.9253 25.6467 41.9536 25.8067 41.9724 26.0139C41.9912 26.221 42.0101 26.5223 42.0289 26.9177C42.123 29.6104 42.688 31.2487 43.7236 31.8324C43.8931 31.9077 44.0626 31.9454 44.232 31.9454C44.4956 31.9454 44.7875 31.87 45.1076 31.7194C45.5407 31.4746 46.0491 31.0039 46.6329 30.3071C47.2354 29.5916 47.7815 28.7819 48.2711 27.8781C48.3841 27.6709 48.4782 27.492 48.5535 27.3414C48.6477 27.1908 48.7042 27.0966 48.723 27.0589C48.7983 26.946 48.9019 26.8895 49.0337 26.8895H49.0902C49.2408 26.9083 49.335 26.993 49.3727 27.1437V27.3131C49.3727 27.5203 49.3256 27.8121 49.2314 28.1888C49.0996 28.6783 48.9113 29.215 48.6665 29.7987C47.4802 32.5668 45.9738 33.9508 44.1473 33.9508C43.5636 33.9508 43.0551 33.8378 42.622 33.6118C41.3039 32.9339 40.3624 31.6253 39.7975 29.6857C39.741 29.4974 39.694 29.3374 39.6563 29.2056C39.6186 29.1114 39.5998 29.0549 39.5998 29.0361C39.581 29.0361 39.5339 29.102 39.4586 29.2338C39.3644 29.4033 39.2514 29.6104 39.1196 29.8552C37.6885 32.7739 36.3704 34.2332 35.1653 34.2332H35.0241C34.9299 34.2332 34.8264 34.2238 34.7134 34.205C34.6192 34.1862 34.5345 34.1673 34.4592 34.1485ZM35.4195 32.2843C35.6831 32.1148 35.9844 31.8136 36.3234 31.3805C36.6623 30.9474 37.1048 30.2789 37.6509 29.3751C37.858 29.0549 38.0746 28.716 38.3005 28.3582C38.5265 27.9816 38.7054 27.6803 38.8372 27.4544C39.1196 27.0213 39.2797 26.7388 39.3174 26.607C39.3738 26.4564 39.4021 26.3434 39.4021 26.2681C39.4021 26.1363 39.3738 26.0139 39.3174 25.9009C39.1291 25.5431 38.9408 25.3642 38.7524 25.3642C38.4135 25.3642 37.971 25.5714 37.4249 25.9856C36.8977 26.3999 36.4363 26.8989 36.0409 27.4826C35.5325 28.2547 35.1747 28.989 34.9676 29.6857C34.7793 30.3825 34.6851 30.938 34.6851 31.3522C34.6851 31.597 34.7134 31.8136 34.7699 32.0019C34.8452 32.2278 34.9017 32.3502 34.9393 32.369C34.9958 32.3879 35.0429 32.3973 35.0806 32.3973C35.1747 32.3973 35.2877 32.3596 35.4195 32.2843Z" fill="url(#paint3_linear_1320_69)"/>
<path d="M24.4036 17.851C24.3471 17.8322 24.2812 17.8039 24.2059 17.7663C24.1306 17.7286 24.0647 17.6909 24.0082 17.6533C23.8199 17.5026 23.6881 17.3237 23.6128 17.1166C23.5563 16.9095 23.528 16.74 23.528 16.6082C23.528 16.4764 23.5469 16.354 23.5845 16.241C23.6222 16.0715 23.6975 15.9021 23.8105 15.7326C23.9423 15.5631 24.0835 15.4219 24.2342 15.3089C24.3283 15.2524 24.413 15.2148 24.4884 15.1959C24.5825 15.1771 24.7143 15.1677 24.8838 15.1677C25.0156 15.1677 25.1192 15.1771 25.1945 15.1959C25.2698 15.1959 25.3263 15.2054 25.364 15.2242C25.4205 15.243 25.4864 15.2807 25.5617 15.3372C25.7123 15.4501 25.8441 15.6008 25.9571 15.7891C26.0136 15.9209 26.0513 16.0151 26.0701 16.0715C26.0889 16.128 26.0983 16.1939 26.0983 16.2693C26.0983 16.3257 26.0889 16.4011 26.0701 16.4952C26.0136 17.1919 25.6841 17.6439 25.0815 17.851C24.9874 17.8887 24.912 17.9075 24.8555 17.9075C24.8179 17.9075 24.7802 17.9075 24.7426 17.9075H24.6578C24.6013 17.9075 24.5166 17.8887 24.4036 17.851ZM26.0136 33.9508C23.4527 33.4424 21.9839 31.2863 21.6073 27.4826C21.5885 27.2378 21.5791 26.9836 21.5791 26.72C21.5791 26.2869 21.6073 25.8444 21.6638 25.3925C21.7392 24.6769 21.8616 24.0932 22.031 23.6413C22.2758 23.0952 22.6053 22.7562 23.0196 22.6244C23.1702 22.5679 23.3021 22.5397 23.415 22.5397C23.5092 22.5397 23.6316 22.5679 23.7822 22.6244C24.3283 22.7939 24.6484 23.227 24.7426 23.9237V24.0932C24.7426 24.225 24.7332 24.3851 24.7143 24.5734C24.6767 24.8558 24.5919 25.3077 24.4601 25.9291C24.2906 26.7388 24.2059 27.492 24.2059 28.1887C24.2059 29.0173 24.3189 29.7611 24.5449 30.4201C24.8461 31.1733 25.2981 31.7006 25.9006 32.0019C26.0324 32.0772 26.1454 32.1242 26.2396 32.1431C26.3525 32.1619 26.5408 32.1713 26.8045 32.1713C27.1434 32.1713 27.407 32.1431 27.5953 32.0866C27.8025 32.0301 28.0755 31.9171 28.4144 31.7476C29.4878 31.2392 30.9848 29.9964 32.9054 28.0193C33.2067 27.718 33.4515 27.4826 33.6398 27.3131C33.8281 27.1248 33.9693 26.993 34.0635 26.9177C34.1576 26.8424 34.233 26.8141 34.2895 26.833C34.3459 26.833 34.4024 26.8612 34.4589 26.9177C34.5154 26.9742 34.5437 27.0495 34.5437 27.1437C34.5437 27.2943 34.4683 27.492 34.3177 27.7368C33.8093 28.6595 33.1408 29.5822 32.3123 30.5049C31.4838 31.4275 30.6364 32.1996 29.7702 32.821C28.6592 33.593 27.5953 33.979 26.5785 33.979C26.3902 33.979 26.2019 33.9696 26.0136 33.9508Z" fill="url(#paint4_linear_1320_69)"/>
<path d="M13.3318 40.6731C12.2584 40.4472 11.3263 39.8917 10.5355 39.0067C8.72778 37.0107 7.62621 33.7625 7.23078 29.2621L7.14604 28.217L6.86359 28.8949C5.52665 32.1713 4.16146 33.9978 2.76803 34.3745C2.57973 34.4121 2.40084 34.4309 2.23137 34.4309C1.28987 34.4309 0.59315 33.866 0.141226 32.7362C0.103566 32.6044 0.0753206 32.4914 0.0564905 32.3973C0.0376603 32.2843 0.0282452 32.1525 0.0282452 32.0019C0.00941508 31.8512 0 31.6347 0 31.3522V31.324C0 30.9285 0.00941508 30.6272 0.0282452 30.4201C0.0470754 30.213 0.0753206 29.9964 0.112981 29.7705C0.451924 28.2076 1.03566 26.7953 1.86419 25.5337C3.20113 23.5754 4.51924 22.5962 5.81852 22.5962C5.9315 22.5962 6.04448 22.6056 6.15746 22.6244C6.27044 22.6433 6.38342 22.6715 6.4964 22.7092C6.62822 22.7468 6.73178 22.7845 6.8071 22.8221C6.88242 22.8598 6.94833 22.8786 7.00482 22.8786L7.08955 22.9069L7.1178 22.7374C7.1178 22.6433 7.12721 22.5209 7.14604 22.3702C7.14604 22.2384 7.15546 22.0972 7.17429 21.9465C7.47557 16.8812 8.26644 11.8536 9.54689 6.86359C9.73519 6.18571 9.94232 5.46075 10.1683 4.68871C10.3942 3.89784 10.5731 3.30469 10.7049 2.90926C10.8744 2.43851 11.0627 1.96775 11.2698 1.497C11.477 1.02624 11.637 0.706131 11.75 0.536659C11.9383 0.291867 12.136 0.141226 12.3432 0.0847357C12.5503 0.0282452 12.7104 0 12.8233 0C12.974 0 13.1246 0.0282452 13.2753 0.0847357C13.4071 0.160056 13.5295 0.263622 13.6424 0.395433C13.7743 0.508414 13.8684 0.63081 13.9249 0.762621C14.0002 0.969753 14.0379 1.21455 14.0379 1.497V1.66647C14.0379 2.02424 13.9437 2.53266 13.7554 3.19171C13.586 3.85077 13.3223 4.76403 12.9646 5.9315C12.7386 6.60938 12.5221 7.29669 12.3149 7.9934C12.1078 8.67129 11.9571 9.18912 11.863 9.54689C10.1118 15.7044 9.23619 21.344 9.23619 26.4658C9.23619 29.4221 9.48098 31.7665 9.97057 33.4988C10.7238 36.3234 11.8536 38.0275 13.36 38.6112C13.4918 38.6677 13.6142 38.7054 13.7272 38.7242C13.8402 38.7242 13.9908 38.7242 14.1791 38.7242C14.3674 38.7054 14.5181 38.6866 14.631 38.6677C14.7628 38.6301 14.9135 38.5642 15.083 38.47C16.1186 37.9804 17.1637 36.9354 18.2182 35.3348C18.8584 34.3368 19.4516 33.3388 19.9976 32.3408C20.5437 31.3428 21.2687 29.8835 22.1725 27.9628C22.342 27.6238 22.4738 27.379 22.5679 27.2284C22.6621 27.0589 22.7374 26.9648 22.7939 26.946C22.8504 26.9083 22.8975 26.8895 22.9351 26.8895C22.9728 26.8895 23.0105 26.8989 23.0481 26.9177C23.1611 26.9742 23.2176 27.0401 23.2176 27.1154C23.2364 27.1719 23.2458 27.219 23.2458 27.2567C23.2458 27.3696 23.2082 27.5485 23.1328 27.7933C22.9822 28.3959 22.7374 29.1679 22.3985 30.1094C22.0784 31.0321 21.73 31.9548 21.3534 32.8775C20.3742 35.1936 19.3197 37.0389 18.1899 38.4135C16.853 39.9576 15.4407 40.7296 13.9531 40.7296C13.746 40.7296 13.5389 40.7108 13.3318 40.6731ZM2.76803 32.1148C3.01283 31.9265 3.29528 31.6252 3.61539 31.211C3.9355 30.7967 4.4345 30.0718 5.11239 29.0361C5.41367 28.603 5.65846 28.2452 5.84676 27.9628C6.03507 27.6615 6.17629 27.4261 6.27044 27.2567C6.38342 27.0684 6.45874 26.9271 6.4964 26.833C6.53406 26.7388 6.55289 26.6823 6.55289 26.6635C6.55289 26.6258 6.54348 26.5976 6.52465 26.5788C6.50582 26.5599 6.47757 26.5129 6.43991 26.4375C6.40225 26.3622 6.36459 26.2681 6.32693 26.1551C6.27044 26.0044 6.21395 25.9009 6.15746 25.8444C6.1198 25.7879 6.07273 25.7597 6.01624 25.7597C5.95974 25.7408 5.90325 25.7314 5.84676 25.7314C5.54548 25.7314 5.17829 25.9009 4.7452 26.2398C4.21796 26.6353 3.70954 27.1907 3.21996 27.9063C2.84335 28.49 2.54207 29.1208 2.31611 29.7987C2.10898 30.4578 2.00541 31.0415 2.00541 31.5499V31.6629C2.02424 32.0395 2.0619 32.2561 2.11839 32.3125C2.19371 32.3502 2.2502 32.369 2.28786 32.369C2.38201 32.369 2.54207 32.2843 2.76803 32.1148Z" fill="url(#paint5_linear_1320_69)"/>
<defs>
<linearGradient id="paint0_linear_1320_69" x1="-3.69592" y1="45.4202" x2="95.1494" y2="45.2013" gradientUnits="userSpaceOnUse">
<stop stop-color="#4C1A77"/>
<stop offset="1"/>
</linearGradient>
<linearGradient id="paint1_linear_1320_69" x1="-3.69571" y1="45.4202" x2="95.1496" y2="45.2013" gradientUnits="userSpaceOnUse">
<stop stop-color="#4C1A77"/>
<stop offset="1"/>
</linearGradient>
<linearGradient id="paint2_linear_1320_69" x1="-3.69549" y1="45.4202" x2="95.1499" y2="45.2013" gradientUnits="userSpaceOnUse">
<stop stop-color="#4C1A77"/>
<stop offset="1"/>
</linearGradient>
<linearGradient id="paint3_linear_1320_69" x1="-3.69577" y1="45.4202" x2="95.1496" y2="45.2013" gradientUnits="userSpaceOnUse">
<stop stop-color="#4C1A77"/>
<stop offset="1"/>
</linearGradient>
<linearGradient id="paint4_linear_1320_69" x1="-3.69601" y1="45.4202" x2="95.1493" y2="45.2013" gradientUnits="userSpaceOnUse">
<stop stop-color="#4C1A77"/>
<stop offset="1"/>
</linearGradient>
<linearGradient id="paint5_linear_1320_69" x1="-3.69576" y1="45.4202" x2="95.1496" y2="45.2013" gradientUnits="userSpaceOnUse">
<stop stop-color="#4C1A77"/>
<stop offset="1"/>
</linearGradient>
</defs>
</svg>
