<svg width="24" height="24" viewBox="0 0 24 24" fill="none" xmlns="http://www.w3.org/2000/svg">
<mask id="mask0_1382_210" style="mask-type:alpha" maskUnits="userSpaceOnUse" x="0" y="0" width="24" height="24">
<rect width="24" height="24" fill="#D9D9D9"/>
</mask>
<g mask="url(#mask0_1382_210)">
<path d="M20.1175 18.2115L17.9036 16L18.7779 15.1298L21 17.3333L20.1175 18.2115ZM17.2725 8.36375L16.3981 7.49354L18.6121 5.29L19.4944 6.16021L17.2725 8.36375ZM7.72754 8.37187L5.51358 6.16021L6.3879 5.29L8.60982 7.49354L7.72754 8.37187ZM4.87432 18.2115L4 17.3333L6.21396 15.1298L7.09645 16L4.87432 18.2115ZM9.4923 17.3783L12.5 15.5785L15.5159 17.4071L14.7284 13.9983L17.374 11.726L13.8911 11.415L12.5 8.19708L11.1168 11.3942L7.63419 11.6971L10.2796 13.9983L9.4923 17.3783ZM7.58751 20L8.88361 14.4583L4.5459 10.7213L10.2685 10.2323L12.5 5L14.7397 10.2323L20.4621 10.7213L16.1243 14.4583L17.4207 20L12.5 17.056L7.58751 20Z" fill="#5A189A"/>
</g>
</svg>
