<svg width="24" height="24" viewBox="0 0 24 24" fill="none" xmlns="http://www.w3.org/2000/svg">
<mask id="mask0_1382_216" style="mask-type:alpha" maskUnits="userSpaceOnUse" x="0" y="0" width="24" height="24">
<rect width="24" height="24" fill="#D9D9D9"/>
</mask>
<g mask="url(#mask0_1382_216)">
<path d="M12.5 20L11.5124 19.1335C10.0293 17.8202 8.80272 16.6917 7.83283 15.748C6.86293 14.8042 6.09436 13.9642 5.52709 13.228C4.95983 12.492 4.56354 11.8205 4.33821 11.2136C4.11274 10.6068 4 9.99105 4 9.36637C4 8.12705 4.42813 7.08945 5.28439 6.25358C6.14081 5.41786 7.2039 5 8.47368 5C9.25479 5 9.99295 5.17829 10.6882 5.53488C11.3834 5.89147 11.9873 6.40284 12.5 7.069C13.0127 6.40284 13.6166 5.89147 14.3118 5.53488C15.0071 5.17829 15.7452 5 16.5263 5C17.7961 5 18.8592 5.41786 19.7156 6.25358C20.5719 7.08945 21 8.12705 21 9.36637C21 9.99105 20.8873 10.6068 20.6618 11.2136C20.4365 11.8205 20.0402 12.492 19.4729 13.228C18.9056 13.9642 18.1385 14.8042 17.1714 15.748C16.2045 16.6917 14.9766 17.8202 13.4876 19.1335L12.5 20ZM12.5 18.2301C13.9316 16.9729 15.1096 15.8953 16.0342 14.9972C16.9588 14.0994 17.6895 13.3193 18.2263 12.6571C18.7632 11.9948 19.136 11.4068 19.3447 10.8928C19.5535 10.3791 19.6579 9.87025 19.6579 9.36637C19.6579 8.49309 19.3596 7.76537 18.7632 7.18318C18.1667 6.601 17.4211 6.30991 16.5263 6.30991C15.8198 6.30991 15.1668 6.50552 14.5673 6.89675C13.968 7.28812 13.4934 7.83254 13.1435 8.52999H11.8565C11.5008 7.82686 11.0247 7.28106 10.4282 6.8926C9.83175 6.50414 9.18023 6.30991 8.47368 6.30991C7.58461 6.30991 6.84042 6.601 6.24109 7.18318C5.64177 7.76537 5.34211 8.49309 5.34211 9.36637C5.34211 9.87025 5.44649 10.3791 5.65526 10.8928C5.86404 11.4068 6.23684 11.9948 6.77368 12.6571C7.31053 13.3193 8.04123 14.098 8.96579 14.9931C9.89035 15.8882 11.0684 16.9672 12.5 18.2301Z" fill="#5A189A"/>
</g>
</svg>
