<svg id="Layer_1" data-name="Layer 1" xmlns="http://www.w3.org/2000/svg" viewBox="0 0 601.41 647.55"><defs><style>.cls-1{fill:#ff452a;}</style></defs><path class="cls-1" d="M1097.73,496.13c-1.75-.81-3.28-1.5-4.78-2.23-15.86-7.64-29.32-18.13-39-33a80.32,80.32,0,0,1-12.8-35.52,110.44,110.44,0,0,1,6-49.31,181.07,181.07,0,0,1,17-35.34c.54-.87,1-1.77,1.62-2.77l-2.91-1.82c-14.85-9.38-24.49-22.47-28.12-39.75a74.82,74.82,0,0,1,.48-31.18c3-14.2,8.81-27.34,15.88-39.93,9.12-16.23,20.2-31.07,32.28-45.19,23.33-27.26,50.32-50.42,79.71-70.87a466.9,466.9,0,0,1,76-43.14,354.1,354.1,0,0,1,71.47-23.73A279.66,279.66,0,0,1,1377.09,36c13.44.42,26.79,1.7,39.83,5.24,8.24,2.24,16,5.48,22.75,10.87,6.08,4.86,10.27,10.88,11.78,18.63a28.22,28.22,0,0,1-27.12,33.36,27.23,27.23,0,0,1-17.46-5.61,15,15,0,0,0-6.92-3c-5.52-.87-11-1.83-16.6-2.32a175.57,175.57,0,0,0-34,.48,261.81,261.81,0,0,0-49.92,10.17c-29,8.93-56.18,22-82.06,37.73-28.79,17.54-55.42,37.86-78.89,62.15a277.12,277.12,0,0,0-31.68,39.06c-6,9-11.13,18.29-14.6,28.5a39.07,39.07,0,0,0-2.26,11.23c-.1,2.81.91,4.88,3.5,5.94s5.39,1.92,8.08,2.91a1.78,1.78,0,0,0,2.09-.69c1.32-1.39,2.67-2.76,4-4.12,28.82-29.08,61.36-53.33,96.54-74.11a616.13,616.13,0,0,1,92.76-44.54,604,604,0,0,1,77.18-24.21,298.6,298.6,0,0,1,42.72-7.29c10.78-.95,21.56-1,32.22,1.28a44.66,44.66,0,0,1,18,8c12.62,9.67,17.52,25.65,12.73,41.49a60,60,0,0,1-10.87,19.86,137.56,137.56,0,0,1-23.37,22.64c-18,14.15-37.48,26.13-57.56,37.1a750.19,750.19,0,0,1-69.57,33.24c-35.68,15-72,28-109.59,37.43a428.48,428.48,0,0,1-49.82,9.73,259.62,259.62,0,0,1-29.6,2.58,4.66,4.66,0,0,0-4,2,172.53,172.53,0,0,0-20.8,33,77.26,77.26,0,0,0-7.16,23,40.85,40.85,0,0,0,.31,13.6,26.45,26.45,0,0,0,10.06,15.58c6.19,4.88,13.38,7.64,20.75,10.18,3.48,1.19,5.45.44,7.89-2.29a489.66,489.66,0,0,1,59-55.4c42.62-34.21,88.85-62.71,137.62-87.21q41.34-20.76,84.43-37.6c25.13-9.87,50.56-18.86,76.64-26a279.32,279.32,0,0,1,34.18-7.29c10.24-1.44,20.54-2,30.83-.65,12,1.62,22.4,6.42,29.92,16.28,6.47,8.48,8.74,18.15,7.63,28.69-.94,8.92-4.27,17-8.7,24.68A142.06,142.06,0,0,1,1569,325.45c-14,15.15-29.53,28.54-45.71,41.24-42.63,33.45-88.82,61.07-137.79,84.13A691.08,691.08,0,0,1,1273,492.74a498.53,498.53,0,0,1-60,12.62,322.3,322.3,0,0,1-50.9,3.35c-3.71-1-5.69,1-7.64,3.9-6.54,9.88-12.84,19.86-17.1,31a67.29,67.29,0,0,0-4.37,16.15,45.8,45.8,0,0,0-.1,8.84,16.23,16.23,0,0,0,4.92,10.15,37.11,37.11,0,0,0,8.64,6.4c7.39,4.13,15.36,6.67,23.55,8.6a200.39,200.39,0,0,0,49,4.9c11.76-.16,23.49-.8,35.17-2.12,12.47-1.41,24.85-3.41,37.15-5.88a635.35,635.35,0,0,0,71-19,5.1,5.1,0,0,0,3.64-3.55c6.17-17.27,15-33.13,25.48-48.16,15.49-22.3,34.26-41.52,55.26-58.61a298.94,298.94,0,0,1,72.07-43.79,208.53,208.53,0,0,1,41.27-13,103.6,103.6,0,0,1,32.19-1.67c10.63,1.25,20.36,4.8,28.42,12.08,9.15,8.27,13.73,18.63,14,30.95.2,9.52-2.48,18.3-6.72,26.68s-9.75,15.56-15.83,22.49c-9.53,10.86-20.43,20.23-31.81,29.08-28,21.77-58.34,39.73-90,55.65-23.62,11.9-47.81,22.52-72.47,32.09l-2.57,1c.57,4.42,2.16,8,6.31,10.12a35,35,0,0,0,11.94,3.32c6.57.75,13.09,0,19.6-.72,15.79-1.85,30.95-6.32,46.06-11q26.76-8.33,53.49-16.72c12.51-3.91,25.29.29,32.48,10.68a28.16,28.16,0,0,1-11.55,41.74,105.64,105.64,0,0,1-13.1,4.56c-20.74,6.42-41.48,12.86-62.26,19.13a233.64,233.64,0,0,1-41.76,8.34c-10.44,1.15-20.88,1.55-31.33.12-11.67-1.6-22.78-4.91-33-10.93-14.75-8.7-24.61-21.33-30.06-37.49-.25-.75-.48-1.51-.78-2.45a16.32,16.32,0,0,0-1.84.33q-25.93,7.79-52.43,13.37c-13.84,2.93-27.79,5.2-41.82,7a396.23,396.23,0,0,1-45.67,3.07c-26,.32-51.53-2.42-76.39-10.28a119.57,119.57,0,0,1-34.5-16.9c-14.58-10.56-24.92-24.19-29.88-41.66a82.58,82.58,0,0,1-2.35-31.13c2-19.24,8.87-36.86,18.1-53.67,1-1.82,2-3.61,3.19-5.64Zm426.75-206.06c-.09-.15-.18-.3-.26-.46-4.41,1.07-8.85,2.06-13.24,3.22-23,6.08-45.3,14-67.44,22.45-23.94,9.16-47.44,19.39-70.55,30.49-35.55,17.08-69.87,36.31-102.45,58.59a590.83,590.83,0,0,0-53.84,41.22c-.59.51-1.42.89-1.65,2,.82-.09,1.45-.13,2.07-.24,13.77-2.41,27.38-5.55,40.87-9.22a624.33,624.33,0,0,0,95.27-34.79c49.11-22.41,95.32-49.64,137.66-83.25A345.88,345.88,0,0,0,1522,292.63C1522.84,291.79,1523.66,290.92,1524.48,290.07ZM1204.09,279.5l.29.45,2.52-.68c43.09-12.07,84.62-28.25,125-47.51a493.07,493.07,0,0,0,58.43-32.39c.71-.47,1.4-1,2.1-1.45l-.25-.47c-67.45,16.43-130.46,43-188.05,82.05Zm247.39,256.14c.7-.29,1.43-.55,2.11-.89,4.51-2.23,9-4.45,13.51-6.72,25.91-13.14,50.89-27.81,74.11-45.35A223.13,223.13,0,0,0,1564,463.56c.6-.59,1.16-1.22,1.74-1.83-20.79,5-39.73,14.07-57.68,25.33a246,246,0,0,0-56.53,48.59Z" transform="translate(-1033.24 -35.83)"/></svg>