<svg id="Layer_1" data-name="Layer 1" xmlns="http://www.w3.org/2000/svg" viewBox="0 0 98.09 90.13"><defs><style>.cls-1{fill:#ff452a;}</style></defs><path class="cls-1" d="M148.69,20.83c-6.34,7.85-12.09,16.67-14.54,26.57-2.3,9.33-1,19.34,4.8,27.15A38.76,38.76,0,0,0,161.3,88.81C172,91.3,183.24,90,193.84,87.47c9.5-2.24,18.92-5.94,25.74-13.19a44,44,0,0,0,7.15-49A46.75,46.75,0,0,0,209.42,6.37c-15.94-9.78-36.67-7.9-51.61,3a51.43,51.43,0,0,0-5.45,4.54c-2,2,1.06,5,3.09,3.09C167.52,5.42,186.25.68,201.92,7.43c14.64,6.3,25.09,21.1,25,37.18a40.61,40.61,0,0,1-6.81,22.2C215.27,74,208,78.62,199.87,81.32a81.47,81.47,0,0,1-29.54,4.42c-8.59-.48-17.1-3.27-23.57-9.09a27.14,27.14,0,0,1-9.34-21.94c.48-9.23,5-17.87,10.22-25.31q2-2.82,4.13-5.49a2.25,2.25,0,0,0,0-3.09,2.2,2.2,0,0,0-3.08,0Z" transform="translate(-133.08 -0.01)"/><path class="cls-1" d="M169.24,41.76v1.09a1.65,1.65,0,0,0,.19.84,2,2,0,0,0,1.15,1.15,1.65,1.65,0,0,0,.84.19L172,45a2.17,2.17,0,0,0,1-.56l.34-.44a2.12,2.12,0,0,0,.3-1.1V41.76a1.65,1.65,0,0,0-.19-.84,2,2,0,0,0-1.15-1.15,1.65,1.65,0,0,0-.84-.19l-.58.08a2.17,2.17,0,0,0-1,.56l-.34.44A2.12,2.12,0,0,0,169.24,41.76Z" transform="translate(-133.08 -0.01)"/><path class="cls-1" d="M189.51,41.44v1.32a1.65,1.65,0,0,0,.19.84,2,2,0,0,0,1.15,1.15,1.65,1.65,0,0,0,.84.19l.58-.08a2.17,2.17,0,0,0,1-.56l.34-.44a2.12,2.12,0,0,0,.3-1.1V41.44a1.65,1.65,0,0,0-.19-.84,2,2,0,0,0-1.19-1.16,1.65,1.65,0,0,0-.84-.19l-.58.08a2.17,2.17,0,0,0-1,.56l-.34.44a2.12,2.12,0,0,0-.3,1.1Z" transform="translate(-133.08 -0.01)"/><path class="cls-1" d="M203.05,69.05a17.92,17.92,0,0,0-2.84-10.84,20.77,20.77,0,0,0-9.87-7.77A32.28,32.28,0,0,0,177,49.17a23.21,23.21,0,0,0-6.73,1.5,23.57,23.57,0,0,0-5.94,3.7,19.88,19.88,0,0,0-7.59,12.71,2.2,2.2,0,0,0,2.18,2.18,2.24,2.24,0,0,0,2.18-2.18c.45-3.46,2.77-6.46,5.28-8.73A17.71,17.71,0,0,1,176,53.64a30.6,30.6,0,0,1,11.71.58A16.2,16.2,0,0,1,196,59.81c2.19,2.65,2.75,5.81,2.68,9.21,0,2.81,4.32,2.81,4.37,0Z" transform="translate(-133.08 -0.01)"/></svg>