<svg id="Layer_1" data-name="Layer 1" xmlns="http://www.w3.org/2000/svg" viewBox="0 0 65.21 59.64"><defs><style>.cls-1{fill:#ff452a;fill-rule:evenodd;}</style></defs><path class="cls-1" d="M196.8,55.18a5.42,5.42,0,0,0-1.13-2.26l-.49-.72c-.33-.54-1-.61-1.4-1.07-.26-.28-.94-.53-.83-1s.32-.8.44-1.18c.27-.86,1.11-1.51,1.28-2.44a7.46,7.46,0,0,0-.74-3.73c-.17-.46-.76-2.12-1.39-2.15-.28,0-.61-.55-.76-.74-.28-.35-.57-.64-.86-1s-.8-.31-1.07-.68c-.16-.22-.35-1.31,0-1.41s.6-1.25.71-1.46a3.52,3.52,0,0,0-.09-1.7,5.28,5.28,0,0,0-.75-1.82A4.15,4.15,0,0,0,188.11,30a7.24,7.24,0,0,1-1.45-.94,5.89,5.89,0,0,0-.76-.42,3.76,3.76,0,0,0-.77-.34c-.85-.26-1.75-.53-2.56-.85a17.94,17.94,0,0,0-6.11-1.06c-2.29-.06-4.28-.84-6.64-.6-1.35.14-2.69,0-4,.16s-2.5.48-3.74.65a44.6,44.6,0,0,0-5.71,1.44,15.48,15.48,0,0,0-3.75,1.37,14.39,14.39,0,0,1-2.87,1.32c-.85.3-.34-.34-.7-.64s-.41-1.13-.5-1.49a2.46,2.46,0,0,0-1.14-1.44,10.15,10.15,0,0,0-1.84-.75,4.63,4.63,0,0,0-1.47-.49,6.74,6.74,0,0,1-1.31-.32,14.47,14.47,0,0,0-1.58-.37,12.16,12.16,0,0,0-2.09,0c-.25,0-1.69-.1-1.83.08a5.81,5.81,0,0,1-2.22.25A2.67,2.67,0,0,0,133,26.93a8.59,8.59,0,0,0-1,3.2,15.64,15.64,0,0,0-.29,4.42c.29,2.57-.05,5.19.34,7.79.14,1,.14,1.9.29,2.87a23.45,23.45,0,0,1-.09,4.43c0,1.12,0,2.28,0,3.35.05,1.36.59,2.79.51,4.12a6.28,6.28,0,0,0,.33,3.41,3.25,3.25,0,0,0,.95,1.13c.06,0,.35.05.34.13,0,.41,6.45.58,7.09.56a25.6,25.6,0,0,0,4.1-.36,7.34,7.34,0,0,0,2.7-.92,3.92,3.92,0,0,0,1.25-2.12c.09-.53.18-1.11.78-1.12.35,0,1.13-.11,1.36.18.42.52,1.33.7,1.77,1.22s1,.86,1.49,1.33a9.33,9.33,0,0,1,.71,1.06,14,14,0,0,1,2.22,4.59c.79,2.55,2,5,2.77,7.54a34.85,34.85,0,0,0,1.26,4c.67,1.55,1.15,3.46,2.15,4.84.24.32.9,1.17,1.33,1.23a1.37,1.37,0,0,1,.48.38c.16.26.38.12.49.26.33.39,1.53.36,2.07.35.94,0,2.36.39,3.21-.18.58-.38,1.2-.74,1.79-1.11A3.78,3.78,0,0,0,175,81.33a6.92,6.92,0,0,0,.7-2.21c0-1.1-.07-2.23-.05-3.34a19.28,19.28,0,0,0-.26-3.31,20.72,20.72,0,0,1,0-3.61c0-1.09-.1-2.19-.07-3.28a1.52,1.52,0,0,1,1.15-1.37c.56-.14,1-.43,1.58-.56,1-.21,2.05-.45,3.09-.59,4-.54,8.23.23,12-1.15a5,5,0,0,0,1.28-.85c.19-.16.43-.33.62-.52a5.34,5.34,0,0,0,.49-.76c0-.14.43-.82.51-1,.15-.39.19-.81.34-1.21a5.87,5.87,0,0,0,.42-2.38C196.73,54.59,196.88,55.82,196.8,55.18ZM145.6,43.84c-.15,1.43-.2,2.88-.26,4.3,0,.75,0,1.49,0,2.23a15.31,15.31,0,0,1,.12,1.91c-.08.81-.26,1.58-.34,2.36,0,.26,0,2.46-.31,2.56-.19,0-.34.65-.64.79a2.69,2.69,0,0,1-.91.2l-2.5.22a4.76,4.76,0,0,1-2.77-.25,1.42,1.42,0,0,1-.64-.76c-.07-.15-.25-1.15-.3-1.18a6.63,6.63,0,0,1-.17-1.12c-.08-.65-.15-1.31-.18-2-.08-1.39.1-2.77,0-4.16s-.06-2.53,0-3.81-.42-2.55-.36-3.87c0-1-.12-2.07-.18-3.07,0-.31-.15-.69-.17-.93-.06-.72,0-1.48,0-2.22a22.42,22.42,0,0,1,.14-3.3c0-.53,0-1.41.6-1.56a9.58,9.58,0,0,1,2.27-.08,14.67,14.67,0,0,1,2.65.05c.37.06,1.28.15,1.52.46.62.8,2.23.64,2.46,1.9a19.87,19.87,0,0,1,.12,5.11,17.74,17.74,0,0,0,.11,2.6,20.54,20.54,0,0,1-.21,3.59C145.5,44.79,145.69,42.92,145.6,43.84ZM191.77,56a2.12,2.12,0,0,1-.85,1.15,8.11,8.11,0,0,1-2.9,1,17.14,17.14,0,0,1-3.51.12,45.77,45.77,0,0,0-4.83.17c-.19,0-1.5,0-1.6.21s-1.12,0-1.28.26a5.72,5.72,0,0,1-1.08.23c-.38.07-1.24.17-1.5.49-.11.14-.78.18-.76.3s-.48.26-.51.3-.4.16-.52.25a2.37,2.37,0,0,0-.59.69,4.43,4.43,0,0,0-1,2,10.44,10.44,0,0,0-.15,1.44c0,.73.08,1.46.07,2.2,0,1.65-.12,3.29-.17,4.93,0,1.24-.14,2.48-.08,3.71a8.91,8.91,0,0,1-.17,3,2,2,0,0,1-1.54,1.51c-.42.09-1,0-1-.56,0-.31-.55-.59-.52-.85.08-.58-.62-1.58-.76-2.14s-.76-1.47-.68-2c0-.24-.36-.74-.39-1.07s-.18-.44-.29-.72c-.37-.88-.55-1.81-.88-2.7s-.44-1.6-.74-2.41c-.17-.46-.36-.79-.56-1.22-.11-.22-.24-.94-.43-1.06,0,0-.31-.89-.37-1-.2-.48-.2-1-.41-1.49s-.95-1.35-1-1.93c0-.27-.53-.6-.68-.87s-.14-.56-.34-.66-.36-.45-.47-.59a9.88,9.88,0,0,0-.83-1,8.82,8.82,0,0,0-2.5-1.91c-.46-.21-1-.71-1.6-1a7.75,7.75,0,0,0-1.65-.77,7.94,7.94,0,0,1-1.26-.38c-.16-.06-.47,0-.6-.17-.44-.44-.72.09-.85-.84-.1-.71,0-1.42-.05-2.12s-.41-1.37-.43-2.11a30.48,30.48,0,0,1,.25-4.05,35.53,35.53,0,0,0,.11-4.84c0-.74,0-1.48,0-2.21s0-1.21.82-1.55c.48-.2,1.24-.33,1.53-.68.5-.6,1.76-.61,2.39-1a10.21,10.21,0,0,1,1.88-.8,22.9,22.9,0,0,0,2.68-.8,20.46,20.46,0,0,1,2.09-.65,15.83,15.83,0,0,1,1.93-.43,16.65,16.65,0,0,1,1.63-.47c1.18-.13,2.37-.27,3.55-.34.72,0,2.72-.58,3.19,0,.15.18.74,0,.94,0,.62,0,1.13,0,1.73,0,1.38,0,2.75.59,4.1.53a9.75,9.75,0,0,1,2,.16,20.08,20.08,0,0,1,2.1.26,15,15,0,0,1,2.87.86c.32.15.64.19.88.5.12.46-.24,1-.46,1.34s-.59.65-.73,1a6.07,6.07,0,0,0-.17,2.37c0,1.58,1,2,2,2.74,1.37.95,4.35,2.56,3.24,4.61-.46.85-1.43,1.45-1.82,2.34a4.14,4.14,0,0,0-.23,1.9c0,.41-.1,1.17.26,1.46,0,0,.16.33.17.35a1.49,1.49,0,0,0,.61.75c.64.41.79,1.33,1.45,1.67a4.62,4.62,0,0,1,1.44,1.24c.2.25.46.53.29.88-.08.17-.37.28-.38.48S191.79,55.81,191.77,56Z" transform="translate(-131.62 -25.23)"/></svg>