<svg width="24" height="24" viewBox="0 0 24 24" fill="none" xmlns="http://www.w3.org/2000/svg">
<mask id="mask0_1382_206" style="mask-type:alpha" maskUnits="userSpaceOnUse" x="0" y="0" width="24" height="24">
<rect width="24" height="24" fill="#D9D9D9"/>
</mask>
<g mask="url(#mask0_1382_206)">
<path d="M9.69613 10.9487C8.92093 10.1533 8.53333 9.19404 8.53333 8.07102C8.53333 6.94819 8.92093 5.98898 9.69613 5.19339C10.4713 4.3978 11.406 4 12.5 4C13.594 4 14.5287 4.3978 15.3039 5.19339C16.0791 5.98898 16.4667 6.94819 16.4667 8.07102C16.4667 9.19404 16.0791 10.1533 15.3039 10.9487C14.5287 11.7442 13.594 12.142 12.5 12.142C11.406 12.142 10.4713 11.7442 9.69613 10.9487ZM4 21V18.414C4 17.8445 4.15073 17.317 4.4522 16.8316C4.75367 16.3461 5.15657 15.973 5.6609 15.712C6.78101 15.1485 7.91104 14.7258 9.05098 14.4439C10.1909 14.162 11.3406 14.0211 12.5 14.0211C13.6594 14.0211 14.8091 14.162 15.949 14.4439C17.089 14.7258 18.219 15.1485 19.3391 15.712C19.8434 15.973 20.2463 16.3461 20.5478 16.8316C20.8493 17.317 21 17.8445 21 18.414V21H4ZM5.7 19.2553H19.3V18.414C19.3 18.1785 19.2335 17.9604 19.1005 17.7598C18.9676 17.5593 18.7871 17.3957 18.5591 17.2689C17.5825 16.7753 16.5869 16.4014 15.5722 16.1471C14.5573 15.8929 13.5332 15.7658 12.5 15.7658C11.4668 15.7658 10.4427 15.8929 9.42782 16.1471C8.41311 16.4014 7.41747 16.7753 6.44092 17.2689C6.21293 17.3957 6.03244 17.5593 5.89947 17.7598C5.76649 17.9604 5.7 18.1785 5.7 18.414V19.2553ZM14.1008 9.71397C14.5447 9.2584 14.7667 8.71075 14.7667 8.07102C14.7667 7.43129 14.5447 6.88364 14.1008 6.42807C13.6569 5.97251 13.1233 5.74472 12.5 5.74472C11.8767 5.74472 11.3431 5.97251 10.8992 6.42807C10.4553 6.88364 10.2333 7.43129 10.2333 8.07102C10.2333 8.71075 10.4553 9.2584 10.8992 9.71397C11.3431 10.1695 11.8767 10.3973 12.5 10.3973C13.1233 10.3973 13.6569 10.1695 14.1008 9.71397Z" fill="#5A189A"/>
</g>
</svg>
