<svg id="Layer_1" data-name="Layer 1" xmlns="http://www.w3.org/2000/svg" viewBox="0 0 97.4 89.57"><defs><style>.cls-1{fill:#ff452a;}</style></defs><path class="cls-1" d="M224.51,25.69A46.25,46.25,0,0,0,207.17,7c-15.85-9.63-36.45-7.71-51.23,3.11a52,52,0,0,0-5.29,4.42c-2.33,2.23,1.21,5.76,3.54,3.54C166,6.76,184.1,2.15,199.4,8.56c14.27,6,24.58,20.38,24.64,36a39.75,39.75,0,0,1-6.49,21.92c-4.72,7.16-11.85,11.74-19.9,14.41-9.26,3.07-19.41,4.9-29.18,4.34-8.33-.48-16.61-3.22-22.88-8.87a26.47,26.47,0,0,1-9-21.43c.5-9,5-17.49,10.1-24.77,1.25-1.79,2.57-3.53,3.94-5.23a2.57,2.57,0,0,0,0-3.54,2.52,2.52,0,0,0-3.54,0c-6.25,7.76-11.94,16.45-14.38,26.22-2.31,9.23-1.14,19.15,4.56,27a38.38,38.38,0,0,0,21.88,14.32c10.74,2.63,22,1.32,32.65-1.17,9.54-2.23,19-6,25.82-13.28a43.76,43.76,0,0,0,6.89-48.71Z" transform="translate(-131.6 -0.72)"/><path class="cls-1" d="M168.79,45.61a1.88,1.88,0,0,0,1,.22l.66-.09a2.5,2.5,0,0,0,1.1-.64l.39-.51a2.43,2.43,0,0,0,.34-1.26V42.26a1.86,1.86,0,0,0-.22-1,1.77,1.77,0,0,0-.52-.8,1.92,1.92,0,0,0-.8-.52,1.88,1.88,0,0,0-1-.22l-.66.09a2.5,2.5,0,0,0-1.1.64l-.39.51a2.43,2.43,0,0,0-.34,1.26v1.07a1.86,1.86,0,0,0,.22,1,1.77,1.77,0,0,0,.52.8A1.85,1.85,0,0,0,168.79,45.61Z" transform="translate(-131.6 -0.72)"/><path class="cls-1" d="M188.77,45.55a1.88,1.88,0,0,0,1,.22l.66-.09a2.5,2.5,0,0,0,1.1-.64l.39-.51a2.43,2.43,0,0,0,.34-1.26V42a1.86,1.86,0,0,0-.22-1,1.77,1.77,0,0,0-.52-.8,1.92,1.92,0,0,0-.8-.52,1.88,1.88,0,0,0-1-.22l-.66.09a2.5,2.5,0,0,0-1.1.64l-.39.51a2.43,2.43,0,0,0-.34,1.26v1.3a1.86,1.86,0,0,0,.22,1,2.3,2.3,0,0,0,1.32,1.32Z" transform="translate(-131.6 -0.72)"/><path class="cls-1" d="M159.79,51.32a2.49,2.49,0,0,0,1.49-1.15,2.5,2.5,0,0,0-.9-3.42,2.75,2.75,0,0,0-1.93-.25l-.85.14a22.65,22.65,0,0,1-3.19.15,2.5,2.5,0,0,0-1.77,4.27,2.64,2.64,0,0,0,1.77.73h.32a16.23,16.23,0,0,0,4,10.3A22,22,0,0,0,170.74,69a45.61,45.61,0,0,0,14.6.85c4.9-.5,9.69-2,13.2-5.65a18.43,18.43,0,0,0,5.19-11.79,2.53,2.53,0,0,0,2.92-1.78,2.56,2.56,0,0,0-1.75-3.08,21.56,21.56,0,0,0-6.47-1,2.59,2.59,0,0,0-1.77.73,2.5,2.5,0,0,0,1.77,4.27h.31a13.35,13.35,0,0,1-2.87,8.16c-2.38,3-5.83,4.43-9.52,5a40.1,40.1,0,0,1-11.78-.07c-3.7-.53-7.63-1.68-10.5-4.19-2.56-2.23-4.66-5.6-4.43-9.11Z" transform="translate(-131.6 -0.72)"/></svg>