<svg width="32" height="32" viewBox="0 0 32 32" fill="none" xmlns="http://www.w3.org/2000/svg">
<g opacity="0.5">
<mask id="mask0_1571_318" style="mask-type:alpha" maskUnits="userSpaceOnUse" x="0" y="0" width="32" height="32">
<rect width="32" height="32" fill="#D9D9D9"/>
</mask>
<g mask="url(#mask0_1571_318)">
<path d="M17.6928 15.6198C18.1609 15.1554 18.395 14.5953 18.395 13.9394C18.395 13.2836 18.1609 12.7234 17.6928 12.2587C17.2249 11.7942 16.6607 11.562 16 11.562C15.3393 11.562 14.7751 11.7942 14.3072 12.2587C13.8391 12.7234 13.605 13.2836 13.605 13.9394C13.605 14.5953 13.8391 15.1554 14.3072 15.6198C14.7751 16.0843 15.3393 16.3165 16 16.3165C16.6607 16.3165 17.2249 16.0843 17.6928 15.6198ZM16 26.375C18.5919 24.0718 20.5753 21.8626 21.9503 19.7474C23.3252 17.6322 24.0127 15.7796 24.0127 14.1896C24.0127 11.7922 23.2454 9.82121 21.7108 8.27681C20.1762 6.73241 18.2726 5.9602 16 5.9602C13.7274 5.9602 11.8238 6.73241 10.2892 8.27681C8.75459 9.82121 7.98728 11.7922 7.98728 14.1896C7.98728 15.7796 8.67477 17.6322 10.0497 19.7474C11.4247 21.8626 13.4081 24.0718 16 26.375ZM16 29C12.6658 26.1321 10.1656 23.4632 8.49934 20.9931C6.83311 18.5229 6 16.2551 6 14.1896C6 11.1548 6.98889 8.69776 8.96668 6.81866C10.9447 4.93955 13.2891 4 16 4C18.7109 4 21.0553 4.93955 23.0333 6.81866C25.0111 8.69776 26 11.1548 26 14.1896C26 16.2551 25.1669 18.5229 23.5007 20.9931C21.8344 23.4632 19.3342 26.1321 16 29Z" fill="#262626"/>
</g>
</g>
</svg>
