<svg id="Layer_1" data-name="Layer 1" xmlns="http://www.w3.org/2000/svg" viewBox="0 0 90.06 86.61"><defs><style>.cls-1{fill:#ff452a;}</style></defs><path class="cls-1" d="M194.34,17.92a6.28,6.28,0,0,0-4.8.72c-3.48,2.29-3,7.82-2.62,12.26.1,1.16.23,2.62.2,3.57a22.53,22.53,0,0,1-2.49-2.69,54.76,54.76,0,0,1-7.43-12C176.58,18.41,171,6,165.63,3.64a6,6,0,0,0-4-.46,6.54,6.54,0,0,0-3.61,3c-2.16,3.72.71,9.46,5.46,19l0,.07C155.61,14.41,149.83,7.85,146,7.49a5.72,5.72,0,0,0-4.53,1.25A5.56,5.56,0,0,0,140.08,13c.15,4.25,7.23,14.17,15.81,25.77-2.6-2.46-4.85-4.82-6.9-7-5-5.19-8.52-8.94-12.68-9.5-.78-.11-3.16-.42-4.6,1.19s-.87,4-.67,4.85c.86,3.46,6,9.3,12.25,15.82-4.78-2.85-9.24-4.42-12.1-2.3a5.56,5.56,0,0,0-2.11,3.31c-.77,4.26,3.51,9.49,14.31,17.48a67.84,67.84,0,0,1,8.81,7.68,33,33,0,0,0,8,6.37,41.6,41.6,0,0,0,10.66,4.64A43.89,43.89,0,0,0,182,82.93,24.92,24.92,0,0,0,197,78.46c7.32-5.28,9.3-13.26,10.14-16.67,1.72-6.92.32-12.79-2.48-24.52-4.32-18.05-8.81-19-10.28-19.35ZM204.07,61c-.76,3.08-2.55,10.27-8.94,14.88-5.79,4.17-13.67,5-23.43,2.42A39,39,0,0,1,161.78,74a29.81,29.81,0,0,1-7.36-5.86,72.38,72.38,0,0,0-9.17-8c-9.19-6.8-13.59-11.65-13.09-14.42a2.4,2.4,0,0,1,.89-1.35,2.34,2.34,0,0,1,1.44-.4c3.88,0,11.65,5.74,14.83,8.09,2.88,2.13,3.49,2.58,4.41,2.44a1.7,1.7,0,0,0,1.07-.65c1-1.36.48-1.86-5.55-8C143.91,40.39,135,31.25,134.06,27.6c-.36-1.45-.14-1.88,0-2s.45-.37,1.87-.18c3.06.41,6.32,3.83,10.83,8.56,2.87,3,6.12,6.43,10.2,10,4.72,4.12,6.09,4.31,7.08,3.2s.95-1.38-5.38-9.92C153.28,30,143.33,16.59,143.2,12.92a2.88,2.88,0,0,1,.41-1.9,3,3,0,0,1,2.11-.41c4.14.38,16.18,17.73,20.71,24.25,4.15,6,4.23,6.1,5.61,5.35a1.57,1.57,0,0,0,.74-1.86l-1-3.11c-1.95-4.28-3.86-8.08-5.53-11.44-3.84-7.69-6.87-13.76-5.56-16a3.41,3.41,0,0,1,1.74-1.58,3,3,0,0,1,1.94.29c3.22,1.44,7.83,9.7,10,14.6a58.14,58.14,0,0,0,7.87,12.68c3,3.66,4.7,4.79,6.25,4.2,2.13-.81,1.89-3.54,1.57-7.33-.29-3.43-.7-8.12,1.22-9.39a3.25,3.25,0,0,1,2.42-.27c1,.2,4.33,2,7.91,17,2.68,11.22,4,16.85,2.49,23Z" transform="translate(-126.43 -0.41)"/><path class="cls-1" d="M192.42.41a1.56,1.56,0,0,0-.18,3.12c12.38.71,19.29,7.48,21.14,20.68a1.56,1.56,0,0,0,1.55,1.35h.22a1.57,1.57,0,0,0,1.33-1.77C214.42,9.07,206.33,1.21,192.42.41Z" transform="translate(-126.43 -0.41)"/><path class="cls-1" d="M150.24,83.91c-13.21-1.84-20-8.76-20.68-21.14a1.57,1.57,0,0,0-3.13.18c.8,13.9,8.67,22,23.38,24.06H150a1.56,1.56,0,0,0,.22-3.11Z" transform="translate(-126.43 -0.41)"/></svg>