<svg width="146" height="146" viewBox="0 0 146 146" fill="none" xmlns="http://www.w3.org/2000/svg">
<path d="M99.8125 106.188C98.6042 105.688 97.9792 105.083 97.9375 104.375C97.8958 103.667 97.875 103.271 97.875 103.188C97.875 101.979 98.3958 101.042 99.4375 100.375C99.7708 100.208 100.062 100.125 100.312 100.125C100.604 100.125 100.792 100.125 100.875 100.125C101.208 100.125 101.5 100.188 101.75 100.312C102 100.438 102.229 100.625 102.438 100.875C102.688 101.083 102.875 101.312 103 101.562C103.167 101.854 103.25 102.167 103.25 102.5C103.25 102.833 103.25 103.062 103.25 103.188C103.25 103.562 103.208 103.917 103.125 104.25C102.833 105 102.438 105.521 101.938 105.812C101.438 106.104 100.958 106.25 100.5 106.25C100.292 106.25 100.062 106.229 99.8125 106.188Z" fill="url(#paint0_linear_1422_217)"/>
<path d="M71.5 118C69.125 117.5 67.0625 116.271 65.3125 114.312C61.3125 109.896 58.875 102.708 58 92.75L57.8125 90.4375L57.1875 91.9375C54.2292 99.1875 51.2083 103.229 48.125 104.062C47.7083 104.146 47.3125 104.188 46.9375 104.188C44.8542 104.188 43.3125 102.938 42.3125 100.438C42.2292 100.146 42.1667 99.8958 42.125 99.6875C42.0833 99.4375 42.0625 99.1458 42.0625 98.8125C42.0208 98.4792 42 98 42 97.375V97.3125C42 96.4375 42.0208 95.7708 42.0625 95.3125C42.1042 94.8542 42.1667 94.375 42.25 93.875C43 90.4167 44.2917 87.2917 46.125 84.5C49.0833 80.1667 52 78 54.875 78C55.125 78 55.375 78.0208 55.625 78.0625C55.875 78.1042 56.125 78.1667 56.375 78.25C56.6667 78.3333 56.8958 78.4167 57.0625 78.5C57.2292 78.5833 57.375 78.625 57.5 78.625L57.6875 78.6875L57.75 78.3125C57.75 78.1042 57.7708 77.8333 57.8125 77.5C57.8125 77.2083 57.8333 76.8958 57.875 76.5625C58.5417 65.3542 60.2917 54.2292 63.125 43.1875C63.5417 41.6875 64 40.0833 64.5 38.375C65 36.625 65.3958 35.3125 65.6875 34.4375C66.0625 33.3958 66.4792 32.3542 66.9375 31.3125C67.3958 30.2708 67.75 29.5625 68 29.1875C68.4167 28.6458 68.8542 28.3125 69.3125 28.1875C69.7708 28.0625 70.125 28 70.375 28C70.7083 28 71.0417 28.0625 71.375 28.1875C71.6667 28.3542 71.9375 28.5833 72.1875 28.875C72.4792 29.125 72.6875 29.3958 72.8125 29.6875C72.9792 30.1458 73.0625 30.6875 73.0625 31.3125V31.6875C73.0625 32.4792 72.8542 33.6042 72.4375 35.0625C72.0625 36.5208 71.4792 38.5417 70.6875 41.125C70.1875 42.625 69.7083 44.1458 69.25 45.6875C68.7917 47.1875 68.4583 48.3333 68.25 49.125C64.375 62.75 62.4375 75.2292 62.4375 86.5625C62.4375 93.1042 62.9792 98.2917 64.0625 102.125C65.7292 108.375 68.2292 112.146 71.5625 113.438C71.8542 113.562 72.125 113.646 72.375 113.688C72.625 113.688 72.9583 113.688 73.375 113.688C73.7917 113.646 74.125 113.604 74.375 113.562C74.6667 113.479 75 113.333 75.375 113.125C77.6667 112.042 79.9792 109.729 82.3125 106.188C83.7292 103.979 85.0417 101.771 86.25 99.5625C87.4583 97.3542 89.0625 94.125 91.0625 89.875C91.4375 89.125 91.7292 88.5833 91.9375 88.25C92.1458 87.875 92.3125 87.6667 92.4375 87.625C92.5625 87.5417 92.6667 87.5 92.75 87.5C92.8333 87.5 92.9167 87.5208 93 87.5625C93.25 87.6875 93.375 87.8333 93.375 88C93.4167 88.125 93.4375 88.2292 93.4375 88.3125C93.4375 88.5625 93.3542 88.9583 93.1875 89.5C92.8542 90.8333 92.3125 92.5417 91.5625 94.625C90.8542 96.6667 90.0833 98.7083 89.25 100.75C87.0833 105.875 84.75 109.958 82.25 113C79.2917 116.417 76.1667 118.125 72.875 118.125C72.4167 118.125 71.9583 118.083 71.5 118ZM48.125 99.0625C48.6667 98.6458 49.2917 97.9792 50 97.0625C50.7083 96.1458 51.8125 94.5417 53.3125 92.25C53.9792 91.2917 54.5208 90.5 54.9375 89.875C55.3542 89.2083 55.6667 88.6875 55.875 88.3125C56.125 87.8958 56.2917 87.5833 56.375 87.375C56.4583 87.1667 56.5 87.0417 56.5 87C56.5 86.9167 56.4792 86.8542 56.4375 86.8125C56.3958 86.7708 56.3333 86.6667 56.25 86.5C56.1667 86.3333 56.0833 86.125 56 85.875C55.875 85.5417 55.75 85.3125 55.625 85.1875C55.5417 85.0625 55.4375 85 55.3125 85C55.1875 84.9583 55.0625 84.9375 54.9375 84.9375C54.2708 84.9375 53.4583 85.3125 52.5 86.0625C51.3333 86.9375 50.2083 88.1667 49.125 89.75C48.2917 91.0417 47.625 92.4375 47.125 93.9375C46.6667 95.3958 46.4375 96.6875 46.4375 97.8125V98.0625C46.4792 98.8958 46.5625 99.375 46.6875 99.5C46.8542 99.5833 46.9792 99.625 47.0625 99.625C47.2708 99.625 47.625 99.4375 48.125 99.0625Z" fill="url(#paint1_linear_1422_217)"/>
<circle cx="73" cy="73" r="73" fill="#5A189A" fill-opacity="0.05"/>
<defs>
<linearGradient id="paint0_linear_1422_217" x1="40.5839" y1="127.437" x2="112.189" y2="127.386" gradientUnits="userSpaceOnUse">
<stop stop-color="#4C1A77"/>
<stop offset="1"/>
</linearGradient>
<linearGradient id="paint1_linear_1422_217" x1="40.5839" y1="127.437" x2="112.189" y2="127.386" gradientUnits="userSpaceOnUse">
<stop stop-color="#4C1A77"/>
<stop offset="1"/>
</linearGradient>
</defs>
</svg>
